<?xml version="1.0" encoding="UTF-8"?>
<!DOCTYPE svg PUBLIC "-//W3C//DTD SVG 1.1//EN" "http://www.w3.org/Graphics/SVG/1.1/DTD/svg11.dtd">
<svg xmlns="http://www.w3.org/2000/svg" version="1.1" width="512px" height="512px" style="shape-rendering:geometricPrecision; text-rendering:geometricPrecision; image-rendering:optimizeQuality; fill-rule:evenodd; clip-rule:evenodd" xmlns:xlink="http://www.w3.org/1999/xlink">
<g><path style="opacity:0.992" fill="#385965" d="M 247.5,-0.5 C 252.833,-0.5 258.167,-0.5 263.5,-0.5C 280.765,4.30299 290.931,15.6363 294,33.5C 294.169,40.8559 294.669,48.1892 295.5,55.5C 359.563,73.3961 400.396,114.396 418,178.5C 420.07,188.063 421.404,197.729 422,207.5C 422.333,257.833 422.667,308.167 423,358.5C 439.667,375.167 456.333,391.833 473,408.5C 473.5,417.494 473.666,426.494 473.5,435.5C 328.167,435.5 182.833,435.5 37.5,435.5C 37.3336,426.494 37.5002,417.494 38,408.5C 54.6667,391.833 71.3333,375.167 88,358.5C 88.3333,308.167 88.6667,257.833 89,207.5C 95.2638,138.931 129.764,90.7645 192.5,63C 200.018,60.0373 207.685,57.5373 215.5,55.5C 216.331,48.1892 216.831,40.8559 217,33.5C 220.069,15.6363 230.235,4.30299 247.5,-0.5 Z"/></g>
<g><path style="opacity:0.959" fill="#385965" d="M 265.5,511.5 C 258.833,511.5 252.167,511.5 245.5,511.5C 219.441,504.09 205.441,486.757 203.5,459.5C 238.167,459.5 272.833,459.5 307.5,459.5C 305.559,486.757 291.559,504.09 265.5,511.5 Z"/></g>
</svg>
